# xmcd CD database file
#
# Track frame offsets:
#	183
#	14545
#	27770
#	42020
#	55458
#	71530
#	82795
#	97083
#	112340
#	124783
#	139995
#	153108
#	169935
#	184718
#
# Disc length: 2636 seconds
#
# Revision: 0
# Processed by: cddbd v1.4b42PL0 Copyright (c) Steve Scherf et al.
# Submitted via: Feurio! 1.61 - http://www.feurio.com
#
DISCID=bb0a4a0e
DTITLE=Truck Stop - Freunde bleiben
DYEAR=1900
DGENRE=
TTITLE0=Die Lady und der Tramp
TTITLE1=Die beste aller Frauen
TTITLE2=Das süße Leben auf dem Land
TTITLE3=Willst du ´nen Kerl oder`n Adonis
TTITLE4=Freunde bleiben
TTITLE5=Supermarkt
TTITLE6=Dann kommt Country-Musik
TTITLE7=Banditos der Liebe
TTITLE8=Mann, so ein flotter Käfer
TTITLE9=Herz aus Gold
TTITLE10=Loch gesucht und nicht gefunden
TTITLE11=In der Hitze der Nacht
TTITLE12=Wir machen aus dem Vater Rhein ´ne Pipeline
TTITLE13=Nichts tut so weh
EXTD=
EXTT0=
EXTT1=
EXTT2=
EXTT3=
EXTT4=
EXTT5=
EXTT6=
EXTT7=
EXTT8=
EXTT9=
EXTT10=
EXTT11=
EXTT12=
EXTT13=
PLAYORDER=
